<svg xmlns="http://www.w3.org/2000/svg" xmlns:xlink="http://www.w3.org/1999/xlink" viewBox="0 0 174.87 201.92"><defs><style>.cls-1{fill:#3ba075;}.cls-2{fill:url(#Dégradé_sans_nom_13);}.cls-3{fill:url(#Dégradé_sans_nom_49);}.cls-4{fill:url(#Dégradé_sans_nom_47);}.cls-5{fill:url(#Dégradé_sans_nom_49-2);}</style><linearGradient id="Dégradé_sans_nom_13" x1="50.48" y1="128.02" x2="136.79" y2="70.91" gradientUnits="userSpaceOnUse"><stop offset="0" stop-color="#fff"/><stop offset="1" stop-color="#2abaff"/></linearGradient><linearGradient id="Dégradé_sans_nom_49" x1="45.21" y1="156.25" x2="129.66" y2="71.8" gradientUnits="userSpaceOnUse"><stop offset="0" stop-color="#3ba075" stop-opacity="0.2"/><stop offset="1" stop-color="#00c2ff"/></linearGradient><linearGradient id="Dégradé_sans_nom_47" x1="38.67" y1="149.72" x2="123.13" y2="65.27" gradientUnits="userSpaceOnUse"><stop offset="0" stop-color="#3ba075" stop-opacity="0.2"/><stop offset="1" stop-color="#00c2ff"/></linearGradient><linearGradient id="Dégradé_sans_nom_49-2" x1="62.66" y1="138.8" x2="133.48" y2="67.98" xlink:href="#Dégradé_sans_nom_49"/></defs><title>Logo</title><g id="Calque_2" data-name="Calque 2"><g id="Calque_1-2" data-name="Calque 1"><polyline class="cls-1" points="149.26 154.68 87.44 190.38 10 145.67 10 56.26 87.43 11.55 87.43 0 0 50.48 0 151.44 87.44 201.92 149.26 166.22"/><polygon class="cls-2" points="87.43 29.57 25.61 136.66 149.26 136.66 149.26 65.27 87.43 29.57"/><polygon class="cls-3" points="87.43 172.35 25.61 136.66 87.43 29.57 149.26 136.66 87.43 172.35"/><polygon class="cls-4" points="25.61 65.27 87.43 29.57 149.26 136.66 25.61 136.66 25.61 65.27"/><polygon class="cls-5" points="87.43 29.57 25.61 136.66 149.26 136.66 149.26 65.27 87.43 29.57"/><rect class="cls-1" x="164.89" y="110.59" width="9.98" height="9.98"/><rect class="cls-1" x="164.89" y="81.36" width="9.98" height="9.98"/></g></g></svg>